<svg xmlns="http://www.w3.org/2000/svg" width="24" height="24" viewBox="0 0 24 24">
    <g fill="none" fill-rule="evenodd">
        <path d="M0 0H24V24H0z"/>
        <path fill="#000" fill-opacity=".5" d="M13.136 1.927l1.177.76c.12.08.262.12.407.113l1.425-.09.113-.002c.765.002 1.463.424 1.81 1.097l.633 1.25c.062.128.165.23.294.29l1.268.625c.722.357 1.157 1.105 1.11 1.9l-.09 1.405c-.005.147.025.293.09.425l.793 1.16c.45.663.45 1.525 0 2.188l-.773 1.18c-.082.117-.123.26-.113.402l.046 1.382c.05.796-.388 1.543-1.11 1.9l-1.268.626c-.13.06-.233.162-.295.29l-.635 1.25c-.34.675-1.04 1.1-1.805 1.097-.038 0-.078 0-.117-.003l-1.425-.09c-.143.003-.283.04-.408.113l-1.178.78c-.325.215-.712.332-1.107.332s-.78-.117-1.11-.334l-1.175-.758c-.12-.082-.262-.122-.407-.113l-1.43.09c-.038 0-.075.003-.113.003-.765-.003-1.463-.425-1.81-1.098l-.632-1.25c-.068-.122-.17-.225-.296-.29l-1.267-.624c-.72-.358-1.158-1.105-1.11-1.9l.09-1.406c.002-.152-.027-.305-.09-.445l-.793-1.16c-.45-.662-.45-1.524 0-2.187l.77-1.16c.083-.118.123-.26.113-.402l-.09-1.405c-.05-.796.387-1.543 1.11-1.9l1.267-.625c.13-.06.233-.163.296-.29l.632-1.25c.34-.675 1.043-1.1 1.808-1.098.04 0 .077 0 .117.002l1.43.09c.155.003.31-.027.453-.09l1.177-.78c.67-.445 1.548-.445 2.218 0zm2.157 10.978c-1.285 0-2.327 1.027-2.327 2.295s1.042 2.295 2.327 2.295 2.328-1.027 2.328-2.295c-.003-1.265-1.043-2.292-2.328-2.295zm.568-5.467c-.19 0-.376.075-.51.207L7.63 15.26c-.28.277-.28.728 0 1.002.28.276.737.278 1.017 0l7.723-7.614c.28-.278.28-.728 0-1.003-.136-.132-.32-.207-.51-.207zm-.568 6.887c.49 0 .887.393.887.875l-.006.11c-.055.43-.429.765-.881.765-.49 0-.887-.393-.887-.875s.397-.875.887-.875zM8.708 6.413c-1.285 0-2.328 1.027-2.325 2.294 0 1.268 1.043 2.295 2.327 2.295 1.285 0 2.325-1.027 2.325-2.295-.002-1.267-1.044-2.295-2.327-2.295zm0 1.42c.49 0 .887.392.887.874-.002.483-.397.875-.887.875l-.111-.006c-.438-.054-.776-.423-.776-.869 0-.482.397-.875.887-.875z"/>
    </g>
</svg>
