<svg xmlns="http://www.w3.org/2000/svg" xmlns:xlink="http://www.w3.org/1999/xlink" width="52.508" height="20" viewBox="0 0 52.508 20"><defs><style>.a{fill:#213368;}.b{clip-path:url(#a);}.c{fill:#00bdf2;}.d{fill:#fff;}</style><clipPath id="a"><rect width="52.508" height="20"/></clipPath></defs><path class="a" d="M185.115,123.117v-3.84h2.543v.669h-1.731v.915h1.562v.669h-1.562v1.586Z" transform="translate(-164.685 -106.113)"/><g class="b"><path class="a" d="M210.944,130.61a1.463,1.463,0,0,1-.755-.187,1.261,1.261,0,0,1-.49-.521,1.846,1.846,0,0,1,0-1.558,1.262,1.262,0,0,1,.49-.521,1.619,1.619,0,0,1,1.509,0,1.261,1.261,0,0,1,.49.521,1.846,1.846,0,0,1,0,1.558,1.26,1.26,0,0,1-.49.521,1.463,1.463,0,0,1-.755.187m0-.619a.5.5,0,0,0,.449-.247,1.354,1.354,0,0,0,0-1.25.5.5,0,0,0-.449-.248.5.5,0,0,0-.456.248,1.347,1.347,0,0,0,0,1.25.5.5,0,0,0,.456.247" transform="translate(-186.402 -113.549)"/></g><g class="b"><path class="a" d="M239.823,130.61a1.464,1.464,0,0,1-.755-.187,1.261,1.261,0,0,1-.49-.521,1.845,1.845,0,0,1,0-1.558,1.262,1.262,0,0,1,.49-.521,1.619,1.619,0,0,1,1.509,0,1.262,1.262,0,0,1,.49.521,1.845,1.845,0,0,1,0,1.558,1.261,1.261,0,0,1-.49.521,1.464,1.464,0,0,1-.755.187m0-.619a.5.5,0,0,0,.449-.247,1.354,1.354,0,0,0,0-1.25.5.5,0,0,0-.449-.248.5.5,0,0,0-.456.248,1.347,1.347,0,0,0,0,1.25.5.5,0,0,0,.456.247" transform="translate(-212.094 -113.549)"/></g><g class="b"><path class="a" d="M268.536,123.164a1.075,1.075,0,0,1-.592-.17,1.164,1.164,0,0,1-.42-.5,1.9,1.9,0,0,1-.156-.813,1.877,1.877,0,0,1,.16-.824,1.154,1.154,0,0,1,.426-.493,1.082,1.082,0,0,1,.58-.164.9.9,0,0,1,.4.082.812.812,0,0,1,.262.2,1.024,1.024,0,0,1,.153.238h.024v-1.444h.8v3.84h-.788v-.461h-.034a.961.961,0,0,1-.157.237.809.809,0,0,1-.265.194.917.917,0,0,1-.395.077m.253-.636a.51.51,0,0,0,.447-.233,1.082,1.082,0,0,0,.158-.618,1.062,1.062,0,0,0-.157-.614.513.513,0,0,0-.448-.228.507.507,0,0,0-.451.233,1.083,1.083,0,0,0-.155.608,1.1,1.1,0,0,0,.155.614.506.506,0,0,0,.45.237" transform="translate(-237.86 -106.113)"/></g><g class="b"><path class="a" d="M307.978,123.117l-1.1-3.84h.887l.636,2.668h.032l.7-2.668h.759l.7,2.674h.034l.636-2.674h.887l-1.1,3.84h-.791l-.731-2.511h-.03l-.729,2.511Z" transform="translate(-273.01 -106.113)"/></g><g class="b"><path class="a" d="M354.86,130.608a1.066,1.066,0,0,1-.684-.216.906.906,0,0,1-.12-1.149.875.875,0,0,1,.4-.269,2.259,2.259,0,0,1,.532-.111,4.078,4.078,0,0,0,.536-.079q.161-.041.161-.18v-.011a.347.347,0,0,0-.112-.276.465.465,0,0,0-.316-.1.568.568,0,0,0-.343.094.441.441,0,0,0-.169.238l-.739-.06a.986.986,0,0,1,.41-.624,1.434,1.434,0,0,1,.845-.231,1.749,1.749,0,0,1,.6.1,1,1,0,0,1,.451.316.866.866,0,0,1,.172.558v1.943h-.757v-.4H355.7a.83.83,0,0,1-.314.327,1.006,1.006,0,0,1-.528.127m.229-.551a.618.618,0,0,0,.431-.153.491.491,0,0,0,.169-.38v-.306a.46.46,0,0,1-.146.056q-.1.024-.21.042l-.2.031a.791.791,0,0,0-.338.118.292.292,0,0,0-.128.257.285.285,0,0,0,.119.249.511.511,0,0,0,.3.084" transform="translate(-314.845 -113.549)"/></g><g class="b"><rect class="a" width="0.799" height="3.84" transform="translate(42.204 13.164)"/></g><g class="b"><rect class="a" width="0.799" height="3.84" transform="translate(43.588 13.164)"/></g><g class="b"><path class="a" d="M407.852,130.61a1.528,1.528,0,0,1-.763-.181,1.224,1.224,0,0,1-.493-.514,1.87,1.87,0,0,1,0-1.568,1.273,1.273,0,0,1,.487-.523,1.413,1.413,0,0,1,.738-.188,1.453,1.453,0,0,1,.687.161,1.177,1.177,0,0,1,.487.487,1.667,1.667,0,0,1,.18.815v.219h-1.961v0a.707.707,0,0,0,.176.508.625.625,0,0,0,.476.186.683.683,0,0,0,.347-.084.458.458,0,0,0,.206-.249l.739.049a1.013,1.013,0,0,1-.428.641,1.5,1.5,0,0,1-.878.24m-.639-1.787h1.209a.588.588,0,0,0-.165-.424.566.566,0,0,0-.424-.167.588.588,0,0,0-.437.173.622.622,0,0,0-.184.418" transform="translate(-361.569 -113.549)"/></g><g class="b"><path class="a" d="M435.49,122.414v.6h-.542v1.395a.27.27,0,0,0,.075.223.309.309,0,0,0,.195.058.623.623,0,0,0,.113-.01l.086-.016.126.594c-.04.013-.1.027-.169.044a1.409,1.409,0,0,1-.264.031,1.023,1.023,0,0,1-.7-.188.748.748,0,0,1-.262-.631v-1.5h-.394v-.6h.394v-.69h.8v.69Z" transform="translate(-385.884 -108.29)"/></g><g class="b"><path class="c" d="M383.392,38.442a1.913,1.913,0,0,0-1.805-1.281h-.018a1.911,1.911,0,0,1-2.758,0h-.017a1.9,1.9,0,0,0-1.247.463v-.146a.282.282,0,0,0-.281-.262h-1.28a.283.283,0,0,0-.283.284v6.95a.283.283,0,0,0,.283.284h1.28a.283.283,0,0,0,.279-.245V39.5c0-.017,0-.034,0-.05a.466.466,0,0,1,.441-.428h.236a.5.5,0,0,1,.27.1.471.471,0,0,1,.173.374l0,4.964a.284.284,0,0,0,.283.284h1.28a.282.282,0,0,0,.281-.27V39.493a.468.468,0,0,1,.209-.4.508.508,0,0,1,.235-.079h.236a.468.468,0,0,1,.443.479l0,4.958a.284.284,0,0,0,.283.283h1.279a.283.283,0,0,0,.283-.283V39.119a1.789,1.789,0,0,0-.1-.677" transform="translate(-334.239 -33.06)"/></g><g class="b"><path class="c" d="M337.881,26.157h-.732V24.972h0v0a.259.259,0,0,0-.258-.26.246.246,0,0,0-.049.005c-.812.222-.649,1.347-2.13,1.442h-.144a.288.288,0,0,0-.062.007h0a.283.283,0,0,0-.221.275V27.72a.283.283,0,0,0,.283.284h.772V33.43a.28.28,0,0,0,.28.28h1.265a.28.28,0,0,0,.28-.28V28h.717a.283.283,0,0,0,.283-.284V26.44a.283.283,0,0,0-.283-.283" transform="translate(-297.391 -21.982)"/></g><g class="b"><path class="a" d="M288.486,37.829h-1.28a.283.283,0,0,0-.283.283v2.647a.3.3,0,0,1-.3.3h-.536a.3.3,0,0,1-.3-.3l-.006-2.642a.283.283,0,0,0-.283-.283h-1.279a.283.283,0,0,0-.283.283v2.9a1.816,1.816,0,0,0,1.888,1.887s.827,0,.853,0a.3.3,0,0,1,0,.592l-.021,0-1.872.007a.283.283,0,0,0-.283.283v1.28a.283.283,0,0,0,.283.283h2.093a1.816,1.816,0,0,0,1.888-1.887V38.111a.283.283,0,0,0-.283-.283" transform="translate(-252.601 -33.654)"/></g><g class="b"><path class="a" d="M189.148,37.827h-2.8a.278.278,0,0,0-.277.277v1.254a.021.021,0,0,0,0,0c0,.009,0,.014,0,.02v5.675a.276.276,0,0,0,.259.284h1.3a.283.283,0,0,0,.283-.283l0-1.945h1.224a1.661,1.661,0,0,0,1.739-1.739V39.569a1.663,1.663,0,0,0-1.739-1.742m-.112,2.345v.79a.3.3,0,0,1-.3.3h-.812V39.68h.812a.3.3,0,0,1,.3.3Z" transform="translate(-165.538 -33.652)"/></g><g class="b"><path class="a" d="M236.569,37.9h-1.776a.276.276,0,0,0-.284.265v.508a.031.031,0,0,1,0,.007v.686a.292.292,0,0,0,.3.281H236.5a.294.294,0,0,1,.255.27v.165a.283.283,0,0,1-.248.263h-.837a1.776,1.776,0,0,0-1.907,1.779v1.489a1.677,1.677,0,0,0,1.788,1.768h2.321a.73.73,0,0,0,.754-.7V39.816c0-1.178-.607-1.921-2.058-1.921m.2,5.342v.2a.26.26,0,0,1-.005.047.285.285,0,0,1-.012.041h0a.3.3,0,0,1-.285.193h-.533a.292.292,0,0,1-.3-.281v-.893h0v-.2h0a.292.292,0,0,1,.3-.28h.533a.292.292,0,0,1,.3.281Z" transform="translate(-207.964 -33.713)"/></g><g class="b"><path class="c" d="M91.008,19.1a.447.447,0,0,1-.11-.014.453.453,0,0,1-.33-.549l.643-2.592a.453.453,0,1,1,.879.218l-.643,2.592a.453.453,0,0,1-.439.344" transform="translate(-80.56 -13.876)"/></g><g class="b"><path class="a" d="M46.746,67.225l-.043,0a.452.452,0,0,1-.408-.493l.888-9.412H40.5l.934,9.408a.453.453,0,1,1-.9.089l-.983-9.906a.452.452,0,0,1,.451-.5H47.68a.452.452,0,0,1,.451.5L47.2,66.814a.453.453,0,0,1-.45.41" transform="translate(-35.187 -50.186)"/></g><g class="b"><path class="a" d="M48.951,146.985a.453.453,0,0,1,0-.905l5.729-.012h0a.453.453,0,0,1,0,.906l-5.729.012Z" transform="translate(-43.146 -129.947)"/></g><g class="b"><path class="d" d="M81.776,88.983h-5.9a1.834,1.834,0,0,1-1.834-1.834v-4.4a1.387,1.387,0,0,1,1.387-1.387h6.348a1.387,1.387,0,0,1,1.387,1.387V87.6a1.387,1.387,0,0,1-1.387,1.387" transform="translate(-65.869 -72.386)"/></g><g class="b"><rect class="c" width="8.426" height="1.11" transform="translate(8.535 15.161)"/></g><g transform="translate(7.719 8.527)"><path class="a" d="M77.788,85.786H72.117a2.181,2.181,0,0,1-2.179-2.178V79.442a2.181,2.181,0,0,1,2.179-2.179h5.671a2.181,2.181,0,0,1,2.179,2.179v4.165a2.181,2.181,0,0,1-2.179,2.178m-5.671-7.616a1.274,1.274,0,0,0-1.273,1.273v4.165a1.274,1.274,0,0,0,1.273,1.273h5.671a1.275,1.275,0,0,0,1.273-1.273V79.442a1.275,1.275,0,0,0-1.273-1.273Z" transform="translate(-69.938 -77.264)"/></g><g class="b"><path class="c" d="M140.613,111.737a.487.487,0,1,1-.487-.5.492.492,0,0,1,.487.5" transform="translate(-124.227 -98.964)"/></g><g class="b"><path class="a" d="M132.5,104.993h-1.467a1.541,1.541,0,0,1,0-3.081H132.5a.453.453,0,1,1,0,.906h-1.467a.635.635,0,0,0,0,1.27H132.5a.453.453,0,1,1,0,.905" transform="translate(-115.216 -90.665)"/></g><g class="b"><path class="a" d="M39.863,42.172h-9.89a.453.453,0,0,1-.453-.453V39.841a.453.453,0,0,1,.453-.453h9.89a.453.453,0,0,1,.453.453v1.878a.453.453,0,0,1-.453.453m-9.437-.906H39.41v-.972H30.426Z" transform="translate(-26.262 -35.042)"/></g></svg>